<svg xmlns="http://www.w3.org/2000/svg" viewBox="0 0 500 500"><defs><style>.cls-1{fill:#fff;}.cls-2{fill:#1d1d1b;}</style></defs><g id="BACKGROUND"><rect class="cls-1" width="500" height="500"/></g><g id="OBJECTS"><path class="cls-2" d="M145.9,200.9c-.11-3.53.33-8.56-2.61-16.11-8-20.47-16-56.67-11.86-78.5-8.05,14.34-3.44,20.38-7.66,31.5-6.94,18.26-10.23,31.93-3.43,48.56,1.38,1.83,3.58,5.34,3.85,7.86a13.75,13.75,0,0,1-3.66-4.66c-8.4-2.2-34.91-2.61-37.24,3.93-1.42,6.63,32.69,4.1,41.84,7.1,0,0,3,1.27,6.64,2.84s4.57,3,11.76,2.85C143.19,204.2,144.37,202.28,145.9,200.9Z"/><path class="cls-2" d="M201.87,151.69c-5.47-12-4.42-22.74-6.1-29.06s-9.9-14.94-10.53-20.42.42-16.42-1.05-20.63-4.21-11.79-4-15.79.05-8.58-1.9-12.42c1.9-.63,5.37-17.89.21-22.74-2.73-1.89-14.73,11.48-17.37,13.16,0,0-6.16-1.13-10.73.21-3.58,1.06-10.21-13.68-18.63-12.84-2.22-.42-2,17.05,1.68,22.74-1.16,1.05-2.37,7.46-1.9,14.42.3,4.37,2.39,8.21,1.9,10-2.59,7.36-.88,19.45-1.22,25.39a5.67,5.67,0,0,1-.57,2.14c-2.94,21.75,6,57.79,12.78,78.51a43.2,43.2,0,0,1,2.13,16.58c-2.19,2-3.87,4.84-1.44,7.93a1.34,1.34,0,0,0,.37.16c1.19.24,14.13.63,15.24,0a4,4,0,0,0,.42-.56,15,15,0,0,0,.57-4.08,2.18,2.18,0,0,0,0-.44c-.71-3.34-8.41-34.87-5-46.32-.93,8.17,2.63,27.81,4.54,38.9.22-2.25.57-5.23,1-8.16,1-6.42,2.11-28.63,2.48-28.52.63.1.52,22.57-1.27,28.89-.86,4-1.48,8.26-1.78,10.55.38,2.32.64,4,.66,4.77a13.43,13.43,0,0,1-.1,1.55c.34,1.07,1.14,2.9,2.8,3.34,2.37.63,14.53.79,15.16-.16l.19-.27a4.36,4.36,0,0,0,.38-3.88c-.79-2.52-4.41-3.59-4.88-5.17s-1.82-5.52.18-12.37,10.42-32.08,11.08-35.94c.22,3.79-6.49,28.08-9.72,36.38-2.59,6.65-1,9.94-.52,11.52s3.51,2.8,4.3,5.33a5,5,0,0,1,.24,1.36,5.54,5.54,0,0,0,3.88-.51c1.82-1.11,4.82-4.42,6.71-8.53s4-5.84,6.63-11.52S207.34,163.69,201.87,151.69Z"/><path class="cls-2" d="M181.21,207.31a6.46,6.46,0,0,1-.78,1.21c-.05.08-.09.16-.14.23A3.39,3.39,0,0,0,181.21,207.31Z"/><path class="cls-2" d="M315.73,184a33.6,33.6,0,0,1,2-4,28.67,28.67,0,0,0,2.41-6.46c-16.6,2.67-49-5.26-49.63.61C269.82,180.29,305.82,183.91,315.73,184Z"/><path class="cls-2" d="M398.45,194.13c-5.52-7.44,21.16-68.39,18.05-95.13-.58-7.22-2.63-15.09-13.45-25.26s-.17-18-20.48-27.49c0,0-11.73-12.91-16.56-11.14s.49,14.29.49,14.29-7.58,5.72-10.24,12.52c0,0-13.31.2-14.1,3.74s4.73,8.68,15.18,12.52c0,0,0,.08.07.22l0-.34a70.11,70.11,0,0,0,6.76,9.19A8.19,8.19,0,0,1,361.62,86c0,2.22-.06,6.36-1,9.19-1.38,4-17.84,5.91-22.37,15.67s-8.87,13.7-10.94,27.79S322.85,156.53,323,162a29.09,29.09,0,0,1-.59,6.22c-.18,4.2-1.05,8.69-3.2,12.1-1.61,2.57-3.28,5.44-3.79,8.13a5.9,5.9,0,0,0,1.08,3.8c2.36,3.26,9.36,5.62,13,5.82s14.09,6.41,18.13,4.53a17.81,17.81,0,0,0,2.61-1.48c2.42-2.09,4.23-4.8,2.66-7.67-2.17-3.94-8.5-4.35-13-4.74,3.64-1.36,12.13-.14,14.3,3.8a5.32,5.32,0,0,1,.66,2.4c2.68.14,9.92.31,15.15-1.48-1.65-6.15-3.51-13.74-5.38-20.55-3.73-13.64-13.64-36-13.64-36s10.79,21,15.05,35.45c2.7,9.15,4.51,20,6,26.8.66,2.14,1.26,3.6,1.82,4.07a7.48,7.48,0,0,0,7.42,1.42c2.53-.95,5.05-.79,6.79-1.74a3.34,3.34,0,0,0,2.57-1c0-.65,0-1.21,0-1.61.17-4.35-2.93-3.17-4.92-4.69-2.17-1.41-5.55-45-4.8-45.77.38.08,2.6,20.48,4.24,33.77.95-9.52,3.81-27.59,3.5-33.77,1.91,7-.59,29.92-3,37.53a68.56,68.56,0,0,0,1.14,7.36c.53,1.23,4.81-.12,4.75,5.45,0,.39-.06.94-.13,1.57a4.06,4.06,0,0,0,3-.22s2.7.33,4.18-1.14c0,0,2.73.19,3.06-1.86S401,195.27,398.45,194.13Z"/><path class="cls-2" d="M113,442.84c.13-2.75.28-5.47.59-8-10-3.68-31.18-.49-27.24,8.67,2.71,6.29,17.44-1.69,26.47,4.2C112.89,446.08,113,444.44,113,442.84Z"/><path class="cls-2" d="M153.28,265.19c-.81-1-1.83-2.23-2.22-2.23s-1,1.63-1.47,3A27.39,27.39,0,0,1,153.28,265.19Z"/><path class="cls-2" d="M186.62,355.55c-3.34-11.44-9.47-40.7-8.5-57.11.15-2.59,2.5-12.45,3.72-15.9,1.13-3.22,8.52-9.72,5.53-17.88a1.33,1.33,0,0,0-1-.83c-5.3-1.08-12.53,7.51-16.2,5.6-5.87-2.91-10.42-3.69-14.37-3.51a35.77,35.77,0,0,1-8.19,1.54,53.37,53.37,0,0,1-7.77,1.84,3.14,3.14,0,0,0-2,1.06c-7.1,8.29,2.21,19.51-3.18,21.65,0,0-11.83.45-12.73-2.54s-5.09-15.88-4.49-25.16a65.8,65.8,0,0,1,2.32-14.6c.6-2.92-.82-5.09-1.65-5.16s3.89-8.76,1.72-10.34a3.21,3.21,0,0,0-4.11.38s.59-7.49-3.37-6.74-3.9,5.17-3.9,5.17-2.47-3.67-4.71-2.55-1.5,6.89-1.5,6.89-3.14-1.2-4.27.45,1.5,1.72,4,7.48-4.85,47.57.22,58.25c1.47,3.62,9,18.68,15.71,34.91a93.54,93.54,0,0,1,10.11-1.31c3.89-.07,16.05,3.91,25,3.76l0,.11c-9,.15-20.66-2.8-24.55-2.73s-19.07,2.54-20.19,3.81a13.25,13.25,0,0,0-2.78,5.94c-.15,1.79.31,2.15.31,2.15a2.11,2.11,0,0,0,2.58,1.51c1.78,2.34,4.53,1.86,5.81,1.46,3.23,5.05,5.85-3.15,20.61.78,13.22,3.53,17.59,16.45,31.22,13.31,6.13-1.35,11-6.42,11-6.42s-1.48,5.1-11.29,7.84c-13.62,3.15-18.32-9.62-31.53-13.15a27,27,0,0,0-10.13-1c4.16,12.12,6.73,22.82,6.4,25.47-.89,7.28-8.45,19.47-9.58,24.65-.76,3.51-3.72,16.81-5.32,30.37a142,142,0,0,0-.67,25.13c.8,6.89,4.19,9.49,8.59,9.39,4-.1,7-1.15,7.23-11.08a39.53,39.53,0,0,0,15.37-.24,2,2,0,0,1,1.84.54c1.28,1.31,4.51,3.88,10.89,5.19,0,0,3.8,4,11.78,3s6.19-3.59,5.79-5.39c-1.2-4.59,15.18-13.18,18.17-29.75C198,412.05,190.42,368.53,186.62,355.55Z"/><path class="cls-2" d="M375.27,281a15.2,15.2,0,0,1,3.67,2.95c1.37-4.83,1.26-11.69,1.19-13.82a.24.24,0,0,0-.42-.16c-2.43,2.68-9.45,5.17-13.31,9A31.8,31.8,0,0,1,375.27,281Z"/><path class="cls-2" d="M390.61,372.65c-9.56,2.89,13.29,39.65-9.7,29.89a58,58,0,0,0-6.57,14c5.19,2.35,16.45,6.87,22.34,4.92C417.8,413.48,401,368.82,390.61,372.65Z"/><path class="cls-2" d="M379.67,402.69a16.53,16.53,0,0,0,1.57-2.54c2.51-5,4.85-10.78,5.18-16.58.87-15.48-8-27.84-10.74-37.68-1.73-6.28-1.26-15.37-1.26-15.37s7.68-1.79,9.89-2.53,7.48-11.26,8-13.15-3.47-5.06-4.94-8.53.84-6,.42-9.68c-.31-2.69-5.19-8.21-9.12-11.83l0-.11a37.16,37.16,0,0,0-4.62-2.59c-2.1-1-4.79-1-8.86-2.61-2.53-.36-5.34-.79-8.32-1.48,1,1.93,1.86,3.34,2.68,3.67-4.56-.6-9.33-18.89-15.55-19.24a1.81,1.81,0,0,0-1,.24c-2,1-8.5,5.57-7.18,25.84-.28-1.37-.5-2.67-.66-3.92-2.87,3.95-9.69,12.9-16,17.82-8.21,6.42-14.21,12.21-19.37,24.63s-7.68,7.58-10.1,17.26-10.74,21.95-9.16,36.79,12.95,30,13.11,33.47-4.23,8.76,6,8.08a10.33,10.33,0,0,0,1.23-3c.16-2.48.68-5.48.22-6.87-.79-2.35-8-13.11-8.59-20.06-.95-6.94-2.57-29.15-2.57-29.15s1.78,9.42,4,28.84c.66,6.55,7.82,17.77,8.61,20.13.46,1.39-.24,4.87-.4,7.34-.07,1.16-1.92,3.57-3.41,6.14-.79,2.55-1.26,5.79,1,7,0,0,1.74,2.13,6.08,1,0,0,.83.79,4.31-.08a7.28,7.28,0,0,0,5.4-.63c2.55-.09,4-2.67,4.7-5.09a21.7,21.7,0,0,0-.2-3.59s-2-7.66-1.1-13.18,2.45-21.79,2.45-21.79.63,14.29-.79,21.86c-1,5.5.63,12.95.63,12.95s0,.12,0,.18c2.24.28,10.31,1.15,15.49.29.19-1.21.42-2.29.51-3.07.4-3.16,3.32-32.21,3.79-32.21.48.86-1.5,28.65-2.36,32.21-.21.82-.55,2-.86,3.31-.19,1.7-.5,7.58,4.49,8.53a6.87,6.87,0,0,0,5.21,1,11.13,11.13,0,0,0,4.89-.15,5.5,5.5,0,0,0,5-1s2.53-.16,2.29-3.79a16.49,16.49,0,0,0-1.25-5.16,12.19,12.19,0,0,0-1.11-1.31s-3.42-5.62,1.34-13.66c6.16-10.42,13.26-34.34,14.21-46.05.39,11.79-5.92,36.26-13.11,46.76-5.27,7.71-1.65,12.63-1.65,12.63l.24.38c8.6,2.52,15-6.07,15-7.15C373.86,412.48,376.84,406.44,379.67,402.69Z"/></g></svg>